<svg width="960" height="299" xmlns="http://www.w3.org/2000/svg" xmlns:xlink="http://www.w3.org/1999/xlink" xml:space="preserve" overflow="hidden"><defs><clipPath id="clip0"><rect x="116" y="201" width="960" height="299"/></clipPath><clipPath id="clip1"><rect x="117" y="202" width="959" height="297"/></clipPath><clipPath id="clip2"><rect x="117" y="202" width="959" height="297"/></clipPath><clipPath id="clip3"><rect x="117" y="202" width="959" height="297"/></clipPath></defs><g clip-path="url(#clip0)" transform="translate(-116 -201)"><g clip-path="url(#clip1)"><g clip-path="url(#clip2)"><g clip-path="url(#clip3)"><text fill="#FFFFFF" fill-opacity="1" font-family="Arial" font-style="normal" font-variant="normal" font-weight="400" font-stretch="normal" font-size="173" text-anchor="start" direction="ltr" writing-mode="lr-tb" unicode-bidi="normal" text-decoration="none" transform="matrix(1.84033 0 0 1.84705 405.933 431)">sireg</text><path d="M266.328 639.801 306.605 755.985" stroke="#313475" stroke-width="5.75227" stroke-linecap="butt" stroke-linejoin="miter" stroke-miterlimit="4" stroke-opacity="1" fill="none" fill-rule="nonzero" transform="matrix(1 0 0 1.00365 -108.982 -361.868)"/><path d="M323.147 755.962 363.424 639.778" stroke="#209474" stroke-width="5.75138" stroke-linecap="butt" stroke-linejoin="miter" stroke-miterlimit="4" stroke-opacity="1" fill="none" fill-rule="nonzero" transform="matrix(1 0 0 1.00365 -108.982 -361.868)"/><path d="M314.535 755.506 357.577 631.347" stroke="#313475" stroke-width="5.75138" stroke-linecap="butt" stroke-linejoin="miter" stroke-miterlimit="4" stroke-opacity="1" fill="none" fill-rule="nonzero" transform="matrix(1 0 0 1.00365 -108.982 -361.868)"/><path d="M425.371 765.538 471.482 632.525" stroke="#313475" stroke-width="5.75138" stroke-linecap="butt" stroke-linejoin="miter" stroke-miterlimit="4" stroke-opacity="1" fill="none" fill-rule="nonzero" transform="matrix(1 0 0 1.00365 -108.982 -361.868)"/><path d="M437.374 756.396 483.485 623.383" stroke="#209474" stroke-width="5.75138" stroke-linecap="butt" stroke-linejoin="miter" stroke-miterlimit="4" stroke-opacity="1" fill="none" fill-rule="nonzero" transform="matrix(1 0 0 1.00365 -108.982 -361.868)"/><path d="M440.472 773.952 487.485 638.337" stroke="#2094C9" stroke-width="5.75138" stroke-linecap="butt" stroke-linejoin="miter" stroke-miterlimit="4" stroke-opacity="1" fill="none" fill-rule="nonzero" transform="matrix(1 0 0 1.00365 -108.982 -361.868)"/><path d="M449.25 773.436 496.586 636.892" stroke="#85D432" stroke-width="5.75138" stroke-linecap="butt" stroke-linejoin="miter" stroke-miterlimit="4" stroke-opacity="1" fill="none" fill-rule="nonzero" transform="matrix(1 0 0 1.00365 -108.982 -361.868)"/><path d="M368.713 640.481 410.677 761.53" stroke="#313475" stroke-width="5.75138" stroke-linecap="butt" stroke-linejoin="miter" stroke-miterlimit="4" stroke-opacity="1" fill="none" fill-rule="nonzero" transform="matrix(1 0 0 1.00365 -108.982 -361.868)"/><path d="M377.347 638.897 419.311 759.947" stroke="#209474" stroke-width="5.75138" stroke-linecap="butt" stroke-linejoin="miter" stroke-miterlimit="4" stroke-opacity="1" fill="none" fill-rule="nonzero" transform="matrix(1 0 0 1.00365 -108.982 -361.868)"/><path d="M384.65 634.151 426.613 755.2" stroke="#2094C9" stroke-width="5.75138" stroke-linecap="butt" stroke-linejoin="miter" stroke-miterlimit="4" stroke-opacity="1" fill="none" fill-rule="nonzero" transform="matrix(1 0 0 1.00365 -108.982 -361.868)"/><path d="M284.789 611.747C284.789 627.629 271.914 640.504 256.033 640.504 240.15 640.504 227.276 627.63 227.276 611.747 227.276 595.865 240.15 582.991 256.033 582.991 271.914 582.991 284.789 595.865 284.789 611.747Z" stroke="#000000" stroke-width="2.58812" stroke-linecap="butt" stroke-linejoin="miter" stroke-miterlimit="4" stroke-opacity="1" fill="#313475" fill-rule="evenodd" fill-opacity="1" transform="matrix(1 0 0 1.00365 -108.982 -361.868)"/><path d="M399.817 611.747C399.817 627.629 386.942 640.504 371.06 640.504 355.178 640.504 342.303 627.63 342.303 611.747 342.303 595.865 355.178 582.991 371.06 582.991 386.942 582.991 399.817 595.865 399.817 611.747Z" stroke="#000000" stroke-width="2.58812" stroke-linecap="butt" stroke-linejoin="miter" stroke-miterlimit="4" stroke-opacity="1" fill="#2094C9" fill-rule="evenodd" fill-opacity="1" transform="matrix(1 0 0 1.00365 -108.982 -361.868)"/><path d="M457.331 784.289C457.331 800.171 444.456 813.046 428.574 813.046 412.692 813.046 399.817 800.171 399.817 784.289 399.817 768.407 412.692 755.532 428.574 755.532 444.456 755.532 457.331 768.407 457.331 784.289Z" stroke="#000000" stroke-width="2.58812" stroke-linecap="butt" stroke-linejoin="miter" stroke-miterlimit="4" stroke-opacity="1" fill="#85D432" fill-rule="evenodd" fill-opacity="1" transform="matrix(1 0 0 1.00365 -108.982 -361.868)"/><path d="M514.845 611.747C514.845 627.629 501.97 640.504 486.088 640.504 470.206 640.504 457.331 627.63 457.331 611.747 457.331 595.865 470.206 582.991 486.088 582.991 501.97 582.991 514.845 595.865 514.845 611.747Z" stroke="#000000" stroke-width="2.58812" stroke-linecap="butt" stroke-linejoin="miter" stroke-miterlimit="4" stroke-opacity="1" fill="#20E0C9" fill-rule="evenodd" fill-opacity="1" transform="matrix(1 0 0 1.00365 -108.982 -361.868)"/><path d="M342.303 784.289C342.303 800.171 329.428 813.046 313.546 813.046 297.664 813.046 284.789 800.171 284.789 784.289 284.789 768.407 297.664 755.532 313.546 755.532 329.428 755.532 342.303 768.407 342.303 784.289Z" stroke="#000000" stroke-width="2.58812" stroke-linecap="butt" stroke-linejoin="miter" stroke-miterlimit="4" stroke-opacity="1" fill="#209474" fill-rule="evenodd" fill-opacity="1" transform="matrix(1 0 0 1.00365 -108.982 -361.868)"/></g></g></g></g></svg>
